<?xml version="1.0" encoding="UTF-8" standalone="no"?>
<!-- Created with Inkscape (http://www.inkscape.org/) -->

<svg
   xmlns:dc="http://purl.org/dc/elements/1.1/"
   xmlns:cc="http://creativecommons.org/ns#"
   xmlns:rdf="http://www.w3.org/1999/02/22-rdf-syntax-ns#"
   xmlns:svg="http://www.w3.org/2000/svg"
   xmlns="http://www.w3.org/2000/svg"
   xmlns:sodipodi="http://sodipodi.sourceforge.net/DTD/sodipodi-0.dtd"
   xmlns:inkscape="http://www.inkscape.org/namespaces/inkscape"
   width="300"
   height="120"
   viewBox="0 0 300 120"
   version="1.1"
   id="SVGRoot"
   inkscape:version="0.92.2 (5c3e80d, 2017-08-06)"
   sodipodi:docname="jaybit.svg">
  <sodipodi:namedview
     id="base"
     pagecolor="#ffffff"
     bordercolor="#666666"
     borderopacity="1.0"
     inkscape:pageopacity="1.0"
     inkscape:pageshadow="0"
     inkscape:zoom="2.4135911"
     inkscape:cx="82.672937"
     inkscape:cy="16.85437"
     inkscape:document-units="px"
     inkscape:current-layer="g5149"
     showgrid="false"
     inkscape:window-width="1920"
     inkscape:window-height="1017"
     inkscape:window-x="-8"
     inkscape:window-y="-8"
     inkscape:window-maximized="1" />
  <defs
     id="defs4504" />
  <metadata
     id="metadata4507">
    <rdf:RDF>
      <cc:Work
         rdf:about="">
        <dc:format>image/svg+xml</dc:format>
        <dc:type
           rdf:resource="http://purl.org/dc/dcmitype/StillImage" />
        <dc:title />
      </cc:Work>
    </rdf:RDF>
  </metadata>
  <g
     id="layer1"
     inkscape:groupmode="layer"
     inkscape:label="Layer 1"
     transform="translate(0,20)">
    <text
       xml:space="preserve"
       style="font-style:normal;font-variant:normal;font-weight:normal;font-stretch:normal;font-size:13.33333302px;line-height:1.25;font-family:Nunito;-inkscape-font-specification:Nunito;letter-spacing:0px;word-spacing:0px;fill:#000000;fill-opacity:1;stroke:none"
       x="199.70242"
       y="191.15048"
       id="text5079"><tspan
         sodipodi:role="line"
         id="tspan5077"
         x="199.70242"
         y="203.18407" /></text>
    <text
       xml:space="preserve"
       style="font-style:normal;font-variant:normal;font-weight:normal;font-stretch:normal;font-size:13.33333302px;line-height:1.25;font-family:Nunito;-inkscape-font-specification:Nunito;letter-spacing:0px;word-spacing:0px;fill:#000000;fill-opacity:1;stroke:none"
       x="122.63883"
       y="211.8665"
       id="text5083"><tspan
         sodipodi:role="line"
         id="tspan5081"
         x="122.63883"
         y="223.90009" /></text>
    <text
       xml:space="preserve"
       style="font-style:normal;font-variant:normal;font-weight:normal;font-stretch:normal;font-size:13.33333302px;line-height:1.25;font-family:Nunito;-inkscape-font-specification:Nunito;letter-spacing:0px;word-spacing:0px;fill:#000000;fill-opacity:1;stroke:none"
       x="246.93495"
       y="188.66457"
       id="text5091"><tspan
         sodipodi:role="line"
         id="tspan5089"
         x="246.93495"
         y="200.69815" /></text>
    <g
       id="g5149">
      <g
         aria-label="jaybit"
         style="font-style:normal;font-variant:normal;font-weight:normal;font-stretch:normal;font-size:86.92517853px;line-height:1.25;font-family:Nunito;-inkscape-font-specification:Nunito;letter-spacing:0px;word-spacing:0px;fill:#000000;fill-opacity:1;stroke:none;stroke-width:2.31080294;stroke-miterlimit:4;stroke-dasharray:none"
         id="text5065"
         transform="matrix(0.97530518,0,0,0.97530518,3.7042215,-12.103042)">
        <path
           d="m 30.753328,85.344843 h 4.838609 q 1.18843,0 1.825089,-0.891323 0.679103,-0.848879 0.679103,-2.461748 V 31.610821 h 8.658563 v 50.296063 q 0,5.560155 -2.716412,8.616119 -2.673968,3.055963 -7.597465,3.055963 h -5.687487 z m 7.257913,-71.390699 h 8.828339 v 8.658563 h -8.828339 z"
           style="font-style:normal;font-variant:normal;font-weight:normal;font-stretch:normal;line-height:0.25;font-family:Bahnschrift;-inkscape-font-specification:Bahnschrift;text-align:center;text-anchor:middle;fill:#002255;stroke:none;stroke-width:2.31080294;stroke-miterlimit:4;stroke-dasharray:none;stroke-opacity:1"
           id="path5151"
           inkscape:connector-curvature="0" />
        <path
           d="m 84.8269,47.739516 q 0,-4.329281 -2.334416,-6.706141 -2.291973,-2.419305 -6.536366,-2.419305 -2.631524,0 -5.17816,0.806435 -2.504192,0.806435 -4.456613,2.249529 l -6.324147,-4.329282 q 2.504193,-3.013519 6.57881,-4.668833 4.117062,-1.697757 9.125446,-1.697757 5.475268,0 9.38011,1.952421 3.904842,1.909977 5.942151,5.602599 2.037309,3.650179 2.037309,8.828339 V 75.667625 H 84.8269 Z M 74.046141,76.304284 q -8.149236,0 -12.181409,-3.35307 -4.032174,-3.395515 -4.032174,-10.271433 0,-6.536366 3.692622,-9.804549 3.692622,-3.268183 11.162755,-3.268183 h 12.520961 l 0.594215,6.960806 H 72.730379 q -3.395515,0 -5.093272,1.527981 -1.655314,1.485538 -1.655314,4.583945 0,3.353071 2.207085,4.965941 2.249528,1.612869 6.791029,1.612869 4.965941,0 7.385245,-1.061098 2.461748,-1.061098 2.461748,-3.310627 l 0.891323,6.196814 q -1.145986,1.782646 -2.843744,2.928632 -1.655313,1.145986 -3.862398,1.697757 -2.207084,0.594215 -4.96594,0.594215 z"
           style="font-style:normal;font-variant:normal;font-weight:normal;font-stretch:normal;line-height:0.25;font-family:Bahnschrift;-inkscape-font-specification:Bahnschrift;text-align:center;text-anchor:middle;fill:#002255;stroke:none;stroke-width:2.31080294;stroke-miterlimit:4;stroke-dasharray:none;stroke-opacity:1"
           id="path5153"
           inkscape:connector-curvature="0" />
        <path
           d="m 139.45225,31.610821 -18.76022,54.370681 q -1.01866,3.013519 -2.67397,4.75372 -1.65531,1.782646 -4.07462,2.546636 -2.4193,0.763991 -5.94215,0.763991 h -1.7402 v -8.319011 h 1.7402 q 2.41931,0 3.81996,-0.976211 1.44309,-0.97621 2.50419,-3.35307 l 16.29847,-49.786736 z m -39.00598,0 h 8.82834 l 13.53961,38.284429 -4.79616,9.38011 z"
           style="font-style:normal;font-variant:normal;font-weight:normal;font-stretch:normal;line-height:0.25;font-family:Bahnschrift;-inkscape-font-specification:Bahnschrift;text-align:center;text-anchor:middle;fill:#002255;stroke:none;stroke-width:2.31080294;stroke-miterlimit:4;stroke-dasharray:none;stroke-opacity:1"
           id="path5155"
           inkscape:connector-curvature="0" />
        <path
           d="m 166.78614,76.304284 q -4.11706,0 -7.17302,-1.952421 -3.05597,-1.994864 -4.49906,-5.602599 l 0.59421,-9.210334 q 0,2.843744 1.01866,4.838609 1.01865,1.994865 2.92863,3.055963 1.95242,1.061098 4.71128,1.061098 4.28683,0 6.62125,-2.58908 2.37686,-2.631524 2.37686,-7.385244 V 48.97039 q 0,-4.838608 -2.37686,-7.512576 -2.33442,-2.673968 -6.62125,-2.673968 -2.75886,0 -4.71128,1.018654 -1.90998,1.018655 -2.92863,3.01352 -1.01866,1.952421 -1.01866,4.711277 l -0.89132,-8.488787 q 1.99487,-3.862398 5.22061,-5.942151 3.22573,-2.122197 7.17302,-2.122197 4.66883,0 7.97946,2.122197 3.35307,2.079753 5.09327,6.111926 1.7402,4.032174 1.7402,9.719661 v 9.59233 q 0,5.602599 -1.78264,9.592329 -1.78265,3.98973 -5.22061,6.111927 -3.43795,2.079752 -8.23412,2.079752 z m -19.73643,-62.35014 h 8.65856 v 61.713481 h -8.65856 z"
           style="fill:#333333;stroke:#333333;stroke-opacity:1"
           id="path5157"
           inkscape:connector-curvature="0" />
        <path
           d="m 194.41714,13.954144 h 8.65857 v 8.658563 h -8.65857 z m 0,17.656677 h 8.65857 v 44.056804 h -8.65857 z"
           style="fill:#333333;stroke:#333333;stroke-width:2.31080294;stroke-miterlimit:4;stroke-dasharray:none;stroke-opacity:1"
           id="path5159"
           inkscape:connector-curvature="0" />
        <path
           d="m 227.77807,75.879845 q -5.34794,0 -7.85213,-2.928631 -2.46175,-2.971076 -2.46175,-8.743451 v -45.41501 h 8.65856 v 45.499898 q 0,1.612869 0.63666,2.504192 0.63666,0.848879 1.86754,0.848879 h 4.1595 v 8.234123 z M 212.92269,31.610821 h 19.86376 v 7.809684 h -19.86376 z"
           style="fill:#333333;stroke:#333333;stroke-width:2.31080294;stroke-miterlimit:4;stroke-dasharray:none;stroke-opacity:1"
           id="path5161"
           inkscape:connector-curvature="0" />
      </g>
      <g
         aria-label="&lt;                /&gt;"
         style="font-style:normal;font-variant:normal;font-weight:normal;font-stretch:normal;font-size:75.23374939px;line-height:1.25;font-family:Nunito;-inkscape-font-specification:Nunito;letter-spacing:0px;word-spacing:0px;fill:#000000;fill-opacity:1;stroke:none;stroke-width:2;stroke-miterlimit:4;stroke-dasharray:none"
         id="text5112"
         transform="matrix(0.97530518,0,0,0.97530518,3.7042215,-12.103042)">
        <path
           d="M 16.155196,52.330617 H 2.783573 L 27.359441,37.305909 v 8.559308 z M 27.359441,67.392061 2.783573,52.330617 h 13.371623 l 11.204245,6.428665 z"
           style="fill:#002255;stroke-width:2;stroke-miterlimit:4;stroke-dasharray:none"
           id="path5164"
           inkscape:connector-curvature="0" />
        <path
           d="m 245.78712,86.935203 h -7.16337 l 24.79628,-69.870406 h 7.16337 z"
           style="fill:#002255;fill-opacity:1;stroke:#002255;stroke-width:2;stroke-miterlimit:4;stroke-dasharray:none;stroke-opacity:1"
           id="path5166"
           inkscape:connector-curvature="0" />
        <path
           d="m 272.64056,37.305909 24.57587,15.024708 h -13.37162 l -11.20425,-6.4654 z m 11.20425,15.024708 h 13.37162 l -24.57587,15.061444 v -8.632779 z"
           style="fill:#002255;fill-opacity:1;stroke-width:2;stroke-miterlimit:4;stroke-dasharray:none"
           id="path5168"
           inkscape:connector-curvature="0" />
      </g>
    </g>
  </g>
</svg>
