<?xml version="1.0" encoding="UTF-8" standalone="no"?>
<!-- Created with Inkscape (http://www.inkscape.org/) -->

<svg
   xmlns:sketch="http://www.bohemiancoding.com/sketch/ns"
   xmlns:dc="http://purl.org/dc/elements/1.1/"
   xmlns:cc="http://creativecommons.org/ns#"
   xmlns:rdf="http://www.w3.org/1999/02/22-rdf-syntax-ns#"
   xmlns:svg="http://www.w3.org/2000/svg"
   xmlns="http://www.w3.org/2000/svg"
   xmlns:sodipodi="http://sodipodi.sourceforge.net/DTD/sodipodi-0.dtd"
   xmlns:inkscape="http://www.inkscape.org/namespaces/inkscape"
   width="567"
   height="567"
   viewBox="0 0 150.01877 150.01874"
   version="1.1"
   id="svg849"
   inkscape:version="0.92.2 (5c3e80d, 2017-08-06)"
   sodipodi:docname="splash.svg">
  <defs
     id="defs843" />
  <sodipodi:namedview
     id="base"
     pagecolor="#ffffff"
     bordercolor="#666666"
     borderopacity="1.0"
     inkscape:pageopacity="0.0"
     inkscape:pageshadow="2"
     inkscape:zoom="0.98994949"
     inkscape:cx="168.98462"
     inkscape:cy="257.91697"
     inkscape:document-units="mm"
     inkscape:current-layer="layer1"
     showgrid="false"
     inkscape:window-width="1920"
     inkscape:window-height="986"
     inkscape:window-x="-11"
     inkscape:window-y="-11"
     inkscape:window-maximized="1"
     units="px" />
  <metadata
     id="metadata846">
    <rdf:RDF>
      <cc:Work
         rdf:about="">
        <dc:format>image/svg+xml</dc:format>
        <dc:type
           rdf:resource="http://purl.org/dc/dcmitype/StillImage" />
        <dc:title />
      </cc:Work>
    </rdf:RDF>
  </metadata>
  <g
     inkscape:label="Layer 1"
     inkscape:groupmode="layer"
     id="layer1"
     transform="translate(37.998967,-97.224533)">
    <g
       transform="matrix(3.149499,0,0,-2.9860446,1824.5912,225.73379)"
       id="g885"
       inkscape:export-xdpi="96"
       inkscape:export-ydpi="96">
      <g
         id="g2819"
         transform="matrix(0.09786276,0,0,0.10087039,-533.10118,-6.1342048)">
        <g
           transform="matrix(1.1734454,0,0,1.0519616,-593.99,-33.03392)"
           id="g2811">
          <g
             id="g2807"
             transform="matrix(10.786253,0,0,10.474236,-3.212742,20.886921)">
            <g
               transform="matrix(0.14809344,0,0,0.14809344,37.519457,17.674759)"
               id="g2789">
              <path
                 inkscape:connector-curvature="0"
                 id="path2787"
                 style="fill:#0069d9;fill-opacity:1;fill-rule:nonzero;stroke:none"
                 d="M 0,0 H -244.426 V 103.838 L -122.682,174.127 0,103.838 Z" />
            </g>
            <g
               style="fill:#e6e6e6"
               transform="matrix(0.15973171,0,0,0.16019475,-0.10957316,26.886758)"
               id="g2793">
              <path
                 transform="matrix(0.37096817,0,0,-0.42490394,0.48389878,113.22642)"
                 inkscape:connector-curvature="0"
                 d="M 316.75391,223.26758 194.61523,342.11328 110.79492,313.5332 31.013672,370.16602 c 0.03527,0.53897 0.0665,1.07819 0.101562,1.61718 0.1084,1.66558 0.21286,3.33008 0.314454,4.9961 0.103733,1.70377 0.201881,3.4091 0.298828,5.11328 0.0996,1.74913 0.193063,3.4985 0.285156,5.24804 0.1012,1.89178 0.196471,3.78301 0.27539,5.67579 0.08733,2.06654 0.138895,4.13516 0.177735,6.20312 0.03627,2.01744 0.04781,4.035 0.04687,6.05274 -0.0027,2.07833 -0.04344,4.15677 -0.0957,6.23437 -0.0448,1.89241 -0.106742,3.78412 -0.175781,5.67578 -0.08067,1.99716 -0.175903,3.99248 -0.285157,5.98828 -0.12,2.14566 -0.284624,4.28821 -0.46289,6.42969 -0.16632,1.87799 -0.347325,3.75555 -0.521485,5.63281 -0.156653,1.68954 -0.307678,3.37996 -0.455078,5.07032 -0.15,1.723 -0.292514,3.44616 -0.433594,5.16992 v 0.002 c 0.920027,0.56963 1.841044,1.13762 2.763672,1.70313 1.45376,0.87736 2.908328,1.75216 4.361328,2.63086 1.6326,0.98161 3.267378,1.96243 4.900391,2.94335 1.586587,0.95478 3.182063,1.89352 4.785156,2.82032 1.502654,0.87717 3.038798,1.69146 4.580078,2.49804 2.082587,1.08736 4.186849,2.13687 6.292969,3.17774 2.38508,1.19234 4.799456,2.32213 7.226563,3.42578 3.408346,1.53384 6.828274,3.03965 10.24414,4.55664 4.067893,1.81517 8.131834,3.63812 12.1875,5.48047 4.61972,2.08931 9.218007,4.22557 13.800781,6.39453 5.132,2.42549 10.22616,4.92993 15.31836,7.4375 5.4392,2.69016 10.85909,5.41835 16.2832,8.13867 5.26498,2.62768 10.52209,5.27118 15.77149,7.92969 5.00148,2.53232 9.98528,5.10071 14.96484,7.67578 4.43706,2.28811 8.79129,4.72991 13.13282,7.19336 2.81174,0.0491 5.6239,0.0883 8.43554,0.14453 13.44816,0.27145 26.89475,0.57658 40.33985,0.97461 13.87261,0.39711 27.74629,0.78927 41.62109,1.10352 14.15996,0.32255 28.32024,0.63693 42.48437,0.68164 13.58117,0.006 27.15778,-0.23103 40.73047,-0.72852 14.2059,-0.42178 28.41395,-0.82552 42.625,-1.0293 13.60187,-0.18328 27.20346,-0.26964 40.80664,-0.24023 12.44399,-0.009 24.88808,-0.0136 37.33204,0.0215 12.69092,0.0471 25.38175,0.12557 38.07031,0.39454 4.93492,0.10441 9.87015,0.21409 14.80469,0.33789 4.21307,-2.93398 8.42154,-5.87465 12.64648,-8.79102 6.40968,-4.40827 12.83622,-8.79282 19.28711,-13.14062 4.93249,-3.32028 9.88828,-6.60756 14.69922,-10.10352 2.80996,-2.08231 5.63826,-4.15904 8.21289,-6.5332 3.15075,-3.02386 6.12718,-6.22635 9.25586,-9.27344 2.69414,-2.68999 5.4043,-5.36389 8.08789,-8.06445 2.26573,-2.27726 4.52932,-4.55705 6.76562,-6.86328 2.09572,-2.14888 4.19866,-4.29106 6.29883,-6.43555 1.90295,-1.93716 3.82491,-3.85669 5.77344,-5.74805 1.35376,-1.30385 2.70863,-2.60462 4.06641,-3.9043 0.64844,-0.61662 1.29886,-1.23113 1.94921,-1.8457 0.0399,-0.49207 0.0744,-0.98453 0.11524,-1.47656 0.17392,-2.11243 0.3496,-4.22433 0.5332,-6.33594 0.18267,-2.09801 0.36763,-4.19587 0.56055,-6.29297 0.19191,-2.08312 0.38706,-4.16595 0.58984,-6.24804 0.20207,-2.07183 0.40698,-4.14228 0.6211,-6.21289 0.20288,-1.95558 0.4118,-3.91231 0.62109,-5.86719 0.16777,-1.59523 0.32776,-3.18982 0.45313,-4.78907 0.12666,-1.55841 0.24665,-3.11848 0.33398,-4.67968 0.0837,-1.55952 0.15355,-3.11846 0.19726,-4.67969 0.0398,-1.62429 0.0592,-3.25019 0.0488,-4.875 -0.004,-1.7014 -0.0209,-3.40244 -0.0547,-5.10352 -0.038,-1.70917 -0.0909,-3.41868 -0.15821,-5.12695 -0.0715,-1.77392 -0.15031,-3.5476 -0.24804,-5.32031 -0.0531,-1.02059 -0.11461,-2.04044 -0.17188,-3.06055 L 562.99414,311.5 459.96289,342.17969 Z"
                 style="fill:#ffffff;fill-opacity:1;fill-rule:nonzero;stroke:#ffffff;stroke-width:2.67388821"
                 id="path2791" />
            </g>
            <g
               style="fill:#a0c800;fill-opacity:1"
               id="g2797"
               transform="matrix(0.14627825,0,0,0.14627825,1.5448329,25.073467)">
              <path
                 transform="matrix(0.40508674,0,0,-0.4653281,-10.78159,136.39464)"
                 inkscape:connector-curvature="0"
                 d="M 317.88477,264.61523 202.25781,376.90625 117.13672,344.9082 32.261719,408.78125 c 0.03621,0.82954 0.07787,1.65885 0.113281,2.48828 0.09627,2.35009 0.163718,4.70115 0.208984,7.05274 0.0496,2.45509 0.04287,4.90999 0.01367,7.36523 -0.02573,2.37813 -0.09488,4.75621 -0.18164,7.13281 -0.0936,2.20614 -0.211239,4.40993 -0.322266,6.61524 -0.104133,2.1155 -0.228796,4.23109 -0.349609,6.3457 -0.113734,1.98807 -0.224058,3.97646 -0.332032,5.96484 -0.108666,2.00496 -0.213406,4.00841 -0.316406,6.01368 -0.103867,2.0255 -0.204281,4.05233 -0.302734,6.07812 -0.09987,2.03813 -0.193976,4.07678 -0.28711,6.11523 -0.0968,1.96644 -0.164599,3.93284 -0.232421,5.9004 -0.07093,1.95941 -0.12729,3.92045 -0.164063,5.88086 -0.02448,1.54149 -0.04294,3.08327 -0.05664,4.625 2.519791,1.44174 5.037795,2.88805 7.544922,4.35156 2.56344,1.48549 5.125853,2.97276 7.69336,4.45117 2.63752,1.51815 5.265663,3.05267 7.902343,4.57227 2.60756,1.50275 5.218013,2.9993 7.822266,4.50781 2.63036,1.51212 5.264112,3.01794 7.884766,4.54687 2.613373,1.51091 5.227289,3.02035 7.841797,4.5293 2.602106,1.50887 5.204114,3.01777 7.804687,4.5293 2.58804,1.51164 5.171385,3.03246 7.757813,4.54687 2.439599,1.43023 4.877037,2.8633 7.333984,4.26367 2.515819,1.43747 5.031099,2.8772 7.562499,4.28711 2.51355,1.40892 5.0322,2.8064 7.55469,4.19922 2.55925,1.39429 5.12582,2.77654 7.69922,4.14453 2.66329,1.4087 5.32691,2.81653 8.00586,4.19532 2.64265,1.3707 5.28466,2.74265 7.9414,4.08593 2.66791,1.33941 5.34544,2.66187 8.03516,3.95703 2.75759,1.33128 5.51951,2.65155 8.29492,3.94532 2.91234,1.36153 5.82198,2.72802 8.74414,4.06836 2.9785,1.37531 5.95866,2.74685 8.93946,4.11718 2.9361,1.34253 5.87303,2.68601 8.82031,4.00391 2.96333,1.32427 5.93026,2.63927 8.89648,3.95703 2.88047,1.26673 5.7605,2.53416 8.65039,3.7793 2.8421,1.21622 5.69003,2.4188 8.54297,3.60937 2.99336,1.267 5.97952,2.55106 8.95508,3.85938 2.88165,1.24946 5.76011,2.50512 8.63867,3.76172 2.6953,1.17601 5.39719,2.33914 8.10156,3.49414 2.53562,1.0829 5.07708,2.15032 7.62696,3.19922 2.55297,1.05105 5.11113,2.08715 7.67187,3.11914 2.71715,1.09277 5.43488,2.18547 8.14844,3.28711 2.68849,1.09359 5.37233,2.20051 8.06445,3.28515 2.79819,1.1401 5.59096,2.29178 8.38282,3.44727 2.82249,1.17267 5.64304,2.35115 8.44921,3.5625 2.72163,1.16103 5.44152,2.32747 8.16407,3.48633 2.67496,1.14907 5.34867,2.2984 8.02539,3.44335 2.71932,1.16262 5.43669,2.3308 8.1582,3.48829 2.76833,1.18639 5.54846,2.34455 8.3125,3.54101 2.76688,1.19329 5.53659,2.37995 8.29883,3.58399 2.771,1.20699 5.53523,2.42915 8.28516,3.68359 2.56061,1.15626 5.11907,2.31939 7.66406,3.50977 0.47791,0.22387 0.95552,0.44832 1.43359,0.67187 2.16716,-0.83989 4.32588,-1.69872 6.47656,-2.58008 2.2132,-0.90977 4.42028,-1.83467 6.61719,-2.7832 2.2498,-0.97383 4.49401,-1.96132 6.72461,-2.97852 2.38841,-1.07533 4.7747,-2.15486 7.16211,-3.23242 2.21323,-1.00274 4.42567,-2.00576 6.62305,-3.04297 2.12672,-1.00421 4.24977,-2.01861 6.35351,-3.07031 2.19886,-1.09694 4.39224,-2.206 6.57032,-3.34375 2.03848,-1.05442 4.06761,-2.12536 6.07812,-3.23242 2.02828,-1.11676 4.04592,-2.25086 6.04688,-3.41602 2.02792,-1.18221 4.04564,-2.38503 6.04492,-3.61523 2.09029,-1.28486 4.17874,-2.57018 6.24804,-3.88867 2.17988,-1.3911 4.35605,-2.78889 6.52735,-4.19336 2.27681,-1.48091 4.56309,-2.9478 6.84179,-4.42578 2.26172,-1.47332 4.52151,-2.9494 6.78125,-4.42579 2.26015,-1.48193 4.51723,-2.96722 6.77735,-4.44921 2.33829,-1.54621 4.67361,-3.09818 7.01953,-4.63282 2.37173,-1.55532 4.75132,-3.09833 7.13281,-4.63867 2.45323,-1.58421 4.9164,-3.15352 7.38672,-4.71094 2.42936,-1.52017 4.86503,-3.03058 7.3125,-4.52148 2.40592,-1.46805 4.81436,-2.93351 7.23047,-4.38477 2.44025,-1.46043 4.88861,-2.90514 7.3418,-4.34375 2.44208,-1.42524 4.88441,-2.8522 7.3457,-4.24414 2.53924,-1.45073 5.07966,-2.89721 7.63672,-4.3164 2.58937,-1.43237 5.18439,-2.85455 7.79492,-4.24805 2.55588,-1.36711 5.11628,-2.72653 7.68555,-4.06836 2.5447,-1.32946 5.09275,-2.65475 7.64648,-3.9668 2.52527,-1.29123 5.04767,-2.58406 7.58399,-3.85351 2.54353,-1.27786 5.09164,-2.54953 7.64648,-3.80469 2.48088,-1.22596 4.96099,-2.45279 7.44141,-3.67969 2.49046,-1.23301 4.98627,-2.45211 7.47461,-3.68945 2.57617,-1.28566 5.15401,-2.5684 7.73046,-3.85351 2.64714,-1.31404 5.29034,-2.63739 7.94532,-3.93555 2.80976,-1.3789 5.62484,-2.74717 8.45117,-4.0918 2.80505,-1.32823 5.60813,-2.66208 8.42969,-3.95508 2.89816,-1.33045 5.80429,-2.64121 8.72656,-3.91797 2.96469,-1.28258 5.9382,-2.5453 8.93555,-3.75 2.97461,-1.1959 5.96183,-2.36286 8.96093,-3.49609 2.87907,-1.08487 5.76114,-2.15933 8.65039,-3.2168 2.58858,-0.94625 5.17434,-1.90184 7.75,-2.88281 1.3117,-0.50039 2.61596,-1.01948 3.92383,-1.5293 -0.0987,-1.26909 -0.19477,-2.53843 -0.29883,-3.80664 -0.16848,-2.05818 -0.34008,-4.1164 -0.51757,-6.17382 -0.17615,-2.03898 -0.35344,-4.07711 -0.53907,-6.11524 -0.18409,-2.01875 -0.37038,-4.03687 -0.56445,-6.05469 -0.19237,-1.99742 -0.38893,-3.99384 -0.5918,-5.99023 -0.20097,-1.97499 -0.40517,-3.95 -0.61718,-5.92383 -0.21,-1.95231 -0.42304,-3.90444 -0.64454,-5.85547 -0.24645,-2.1692 -0.50386,-4.33836 -0.73046,-6.50976 -0.22142,-2.18007 -0.44204,-4.35927 -0.625,-6.54297 -0.18944,-2.19638 -0.36697,-4.39325 -0.5293,-6.5918 -0.15019,-2.16565 -0.28009,-4.33402 -0.39258,-6.50195 -0.12293,-2.21555 -0.24838,-4.43104 -0.33398,-6.64844 -0.0443,-1.16269 -0.0739,-2.32564 -0.11329,-3.48828 l -71.5996,-67.86524 -101.64258,32.24219 z"
                 style="fill:#4d4d4d;fill-opacity:1;fill-rule:nonzero;stroke:none;stroke-width:2.4451375"
                 id="path2795" />
            </g>
            <g
               style="fill:#e6e6e6"
               transform="matrix(0.14809344,0,0,0.14809344,2.0999779,12.683179)"
               id="g2801">
              <path
                 inkscape:connector-curvature="0"
                 id="path2799"
                 style="fill:#ffffff;fill-opacity:1;fill-rule:nonzero;stroke:#ffffff"
                 d="M 0,0 116.488,-67.255 232.975,0 V 134.51 L 116.488,201.764 0,134.51 Z m 116.488,-79.39 -127,73.323 v 146.644 l 127,73.324 127,-73.324 V -6.067 Z" />
            </g>
            <g
               style="fill:#e6e6e6"
               transform="matrix(0.1629726,0,0,-0.14184409,3.6354284,36.0317)"
               id="g2805">
              <g
                 style="fill:#e6e6e6;fill-rule:evenodd;stroke:none;stroke-width:1"
                 sketch:type="MSPage"
                 id="g2803" />
            </g>
          </g>
          <g
             id="g2809"
             transform="translate(0,-31.5)"
             style="fill:#d40000;stroke:#d40000" />
        </g>
        <g
           transform="matrix(1.1004175,0,0,1.1004175,35.430491,-25.183179)"
           id="g2817" />
      </g>
      <g
         transform="matrix(1.238806,0,0,1.238806,135.93201,-1.9189162)"
         id="g865">
        <path
           style="fill:#d4aa00;stroke:#ffffff;stroke-width:3.07500005;stroke-linecap:butt;stroke-linejoin:miter;stroke-miterlimit:4;stroke-dasharray:none;stroke-opacity:1"
           d="M -567.9358,13.455615 V 2.6153081"
           id="path859"
           inkscape:connector-curvature="0" />
        <path
           inkscape:connector-curvature="0"
           id="path861"
           d="m -562.51565,8.0354616 h -10.8403"
           style="fill:#d4aa00;stroke:#ffffff;stroke-width:3.07500005;stroke-linecap:butt;stroke-linejoin:miter;stroke-miterlimit:4;stroke-dasharray:none;stroke-opacity:1" />
      </g>
    </g>
  </g>
</svg>
